<svg width="617" height="572" viewBox="0 0 617 572" fill="none" xmlns="http://www.w3.org/2000/svg">
<g clip-path="url(#clip0_105_8)">
<path d="M612.798 187.108C611.289 189.156 609.843 191.237 608.459 193.351C590.409 221.19 583.214 254.673 588.238 287.455C588.934 292.081 589.881 296.665 591.077 301.189C583.086 261.385 570.718 223.778 552.097 189.081C551.343 187.873 550.658 186.622 550.047 185.335C547.5 179.91 546.386 173.923 546.811 167.946C547.237 161.969 549.187 156.201 552.477 151.189C555.767 146.178 560.287 142.09 565.607 139.316C570.926 136.542 576.869 135.173 582.868 135.34C588.867 135.507 594.724 137.204 599.88 140.27C605.037 143.336 609.321 147.668 612.327 152.855C615.332 158.042 616.957 163.91 617.049 169.901C617.14 175.893 615.694 181.808 612.848 187.083C611.639 189.313 610.192 191.406 608.534 193.326" fill="url(#paint0_linear_105_8)"/>
<path d="M552.047 189.093C567.466 217.718 578.99 248.269 586.312 279.938C586.312 279.938 586.312 280.026 586.312 280.051C586.312 280.076 586.312 280.051 586.312 280.126C586.945 282.548 587.554 284.991 588.138 287.455C589.205 291.974 590.147 296.552 590.964 301.189C593.153 313.516 594.461 325.983 594.878 338.495C594.878 338.495 594.878 338.558 594.878 338.583C594.978 341.554 595.028 344.526 595.028 347.522C595.124 406 575.603 462.826 539.58 508.936L538.667 510.109L537.729 511.27L537.066 512.094C524.981 526.664 509.255 537.786 491.48 544.337C473.706 550.888 454.513 552.634 435.845 549.399C417.178 546.164 399.697 538.062 385.173 525.914C370.65 513.766 359.598 498.002 353.138 480.219C353.063 479.982 352.975 479.757 352.9 479.52L352.375 478.021C348.844 468.412 343.363 459.635 336.275 452.24C329.188 444.845 320.646 438.992 311.187 435.047C301.728 431.102 291.554 429.15 281.304 429.314C271.054 429.479 260.948 431.755 251.621 436.001C242.293 440.247 233.944 446.371 227.098 453.989C220.252 461.608 215.055 470.556 211.835 480.273C208.614 489.99 207.439 500.266 208.382 510.458C209.326 520.65 212.368 530.537 217.317 539.5C217.905 540.561 218.568 541.61 219.156 542.634C221.027 546.635 221.563 551.131 220.684 555.459C219.805 559.787 217.558 563.719 214.274 566.677C210.989 569.635 206.841 571.462 202.438 571.89C198.036 572.318 193.612 571.323 189.818 569.053H189.743L188.705 568.379C153.33 545.523 123.962 514.526 103.068 477.992C82.1744 441.458 70.3638 400.453 68.6278 358.419C66.8919 316.384 75.2813 274.547 93.0919 236.42C110.902 198.293 137.614 164.988 170.985 139.301C174.22 136.804 177.521 134.382 180.889 132.035C188.626 125.33 194.888 117.099 199.281 107.859C203.674 98.6186 206.102 88.5702 206.413 78.3468C206.338 77.0982 206.3 75.7498 206.3 74.4263C206.3 73.6688 206.3 72.9072 206.3 72.1414C206.632 61.5459 209.229 51.1437 213.918 41.6328C218.607 32.1219 225.28 23.7223 233.487 16.9975C241.695 10.2727 251.248 5.37826 261.506 2.6426C271.764 -0.0930635 282.489 -0.606687 292.962 1.13619L296.026 1.71053C349.271 11.8155 399.633 33.5102 443.528 65.2517C487.424 96.9932 523.775 138.002 549.996 185.36C550.684 186.609 551.372 187.857 552.035 189.106" fill="#0C0C0C"/>
<path d="M441.793 447.984C449.757 442.607 451.319 431.024 445.284 422.113C439.248 413.203 427.899 410.338 419.936 415.715C411.972 421.093 410.409 432.675 416.445 441.586C422.48 450.497 433.829 453.361 441.793 447.984Z" fill="#E0E0E0"/>
<path d="M137.621 109.074V108.999C136.546 107.484 135.404 106.015 134.195 104.591L134.095 104.454C122.292 90.6059 105.464 82.0059 87.3108 80.546C69.1577 79.086 51.1674 84.8858 37.2973 96.6693C23.4272 108.453 14.8136 125.255 13.3513 143.379C11.8891 161.504 17.698 179.465 29.5002 193.314L30.4381 194.387L31.0759 195.087L29.5002 193.314L30.4381 194.387L31.0759 195.087C52.1872 218.717 75.9586 239.836 101.918 258.026C102.296 258.276 102.619 258.598 102.869 258.975L104.194 259.612L101.881 258.014L102.081 258.139C102.794 258.613 103.482 259.087 104.169 259.599C114.93 267.444 122.54 278.858 125.636 291.796C128.732 304.734 127.112 318.35 121.066 330.204C115.02 342.058 104.943 351.374 92.6416 356.483C80.3401 361.592 66.6184 362.16 53.9356 358.085L53.1352 357.823C47.5184 356.056 41.5853 355.523 35.7425 356.259C29.8998 356.995 24.2856 358.984 19.2845 362.089C14.2835 365.193 10.0138 369.341 6.76814 374.247C3.52248 379.153 1.37753 384.702 0.480274 390.513C-0.416983 396.324 -0.0453382 402.26 1.56974 407.915C3.18482 413.569 6.00516 418.808 9.8375 423.272C13.6698 427.737 18.4236 431.321 23.773 433.78C29.1223 436.239 34.9409 437.514 40.83 437.518C43.5215 437.523 46.2068 437.26 48.8459 436.732C49.3086 436.644 49.7588 436.544 50.2215 436.432H50.309L48.8209 436.757L50.1965 436.457H50.284C77.5906 430.671 105.966 432.515 132.291 441.786C158.616 451.058 181.871 467.397 199.497 489.009C202.553 492.846 205.408 496.838 208.051 500.97C211.253 462.414 244.016 432.449 283.433 432.449C297.028 432.437 310.372 436.098 322.052 443.044C333.731 449.99 343.311 459.962 349.774 471.903C345.427 455.107 344.461 437.616 346.934 420.445C349.407 403.273 355.269 386.762 364.18 371.869C371.099 360.464 373.85 347.02 371.967 333.819C370.084 320.619 363.683 308.476 353.85 299.453C344.018 290.43 331.36 285.083 318.027 284.321C304.694 283.558 291.507 287.427 280.707 295.271L280.207 295.658L280.057 295.757C274.274 299.938 267.548 302.628 260.475 303.591C253.401 304.554 246.199 303.759 239.507 301.276C232.815 298.794 226.84 294.701 222.112 289.361C217.384 284.02 214.049 277.597 212.403 270.662C212.403 270.587 212.403 270.524 212.403 270.449C212.29 269.95 212.178 269.45 212.078 268.951C212.078 268.889 212.078 268.839 212.078 268.776L212.478 270.662C212.478 270.587 212.478 270.524 212.478 270.449C212.365 269.95 212.253 269.45 212.153 268.951C212.153 268.889 212.153 268.839 212.153 268.776C199.373 210.721 174 156.169 137.821 108.961V108.886C136.683 107.413 135.545 105.927 134.395 104.479L134.295 104.342" fill="url(#paint1_linear_105_8)"/>
</g>
<defs>
<linearGradient id="paint0_linear_105_8" x1="543.556" y1="253.806" x2="629.17" y2="168.057" gradientUnits="userSpaceOnUse">
<stop stop-color="#E8779E"/>
<stop offset="0.2" stop-color="#EA7C98"/>
<stop offset="0.47" stop-color="#EF8B87"/>
<stop offset="0.79" stop-color="#F6A36A"/>
<stop offset="1" stop-color="#FDB753"/>
</linearGradient>
<linearGradient id="paint1_linear_105_8" x1="272.629" y1="516.402" x2="31.5866" y2="98.2429" gradientUnits="userSpaceOnUse">
<stop stop-color="#E8779E"/>
<stop offset="0.2" stop-color="#EA7C98"/>
<stop offset="0.47" stop-color="#EF8B87"/>
<stop offset="0.79" stop-color="#F6A36A"/>
<stop offset="1" stop-color="#FDB753"/>
</linearGradient>
<clipPath id="clip0_105_8">
<rect width="617" height="572" fill="white"/>
</clipPath>
</defs>
</svg>
