<svg id="Calque_1" data-name="Calque 1" xmlns="http://www.w3.org/2000/svg" viewBox="0 0 493.39 458.13"><defs><style>.cls-1{fill:#e0e0e0;}.cls-2{fill:#0c0c0c;}</style></defs><title>Orc Mono</title><path class="cls-1" d="M499.64,176.5q-1.81,2.46-3.47,5l0,0A108.5,108.5,0,0,0,480,256.87a103.27,103.27,0,0,0,2.27,11c-6.39-31.88-16.28-62-31.17-89.79a29.82,29.82,0,0,1-1.64-3,28.12,28.12,0,1,1,50.22,1.4h0a28.31,28.31,0,0,1-3.45,5s0,0,0,0" transform="translate(-9.61 -26.64)"/><path class="cls-2" d="M451.06,178.09a292.54,292.54,0,0,1,27.4,72.76s0,.07,0,.09,0,0,0,.06q.76,2.91,1.46,5.87v0q1.28,5.43,2.26,11v0a211.37,211.37,0,0,1,3.13,29.88s0,.05,0,.07c.08,2.38.12,4.76.12,7.16a209.64,209.64,0,0,1-44.34,129.28l-.73.94-.75.93-.53.66A86,86,0,0,1,292,411.26c-.06-.19-.13-.37-.19-.56l-.42-1.2s0,0,0,0a59.52,59.52,0,1,0-108,49.24h0a0,0,0,0,1,0,0c.47.85,1,1.69,1.47,2.51l0,0a16.52,16.52,0,0,1-23.46,21.16l-.06,0-.83-.54h0a210.64,210.64,0,0,1-14.17-343.66h0q3.88-3,7.92-5.82v0a59.32,59.32,0,0,0,20.41-43c-.06-1-.09-2.08-.09-3.14q0-.91,0-1.83a59.54,59.54,0,0,1,69.3-56.87l2.45.46A295,295,0,0,1,449.42,175.1h0c.55,1,1.1,2,1.63,3h0" transform="translate(-9.61 -26.64)"/><ellipse class="cls-1" cx="354.15" cy="372.53" rx="13.92" ry="15.6" transform="translate(-157.51 235.69) rotate(-34.07)"/><path class="cls-1" d="M119.66,114l0-.06q-1.29-1.82-2.74-3.53l-.08-.11a54.91,54.91,0,1,0-83.64,71.17l.75.86.51.56-1.26-1.42.75.86.51.56a329.74,329.74,0,0,0,56.65,50.41,2.7,2.7,0,0,1,.76.76l1.06.51h0l-1.85-1.28.16.1c.57.38,1.12.76,1.67,1.17h0a44.83,44.83,0,0,1-40.17,78.88l-.64-.21.64.21-.64-.21a32.67,32.67,0,1,0-9.84,63.83,32.33,32.33,0,0,0,6.41-.63h0c.37-.07.73-.15,1.1-.24h.07l-1.19.26h0l1.1-.24h.07A121.38,121.38,0,0,1,169.14,418.3a113.92,113.92,0,0,1,6.84,9.58C178.54,397,204.74,373,236.26,373a60.24,60.24,0,0,1,53.05,31.6h0a105,105,0,0,1,11.52-80.12,46.24,46.24,0,0,0-66.75-61.35.05.05,0,0,1,0,0l-.4.31-.12.08.56-.42-.56.42a34.69,34.69,0,0,1-54.1-20.1c0-.06,0-.11,0-.17-.09-.4-.18-.8-.26-1.2,0-.05,0-.09,0-.14l.32,1.51c0-.06,0-.11,0-.17-.09-.4-.18-.8-.26-1.2,0-.05,0-.09,0-.14a325.69,325.69,0,0,0-59.44-128l0-.06c-.91-1.18-1.82-2.37-2.74-3.53l-.08-.11" transform="translate(-9.61 -26.64)"/></svg>